G04 DipTrace 2.4.0.2*
%INBoardOutline.gbr*%
%MOIN*%
%ADD11C,0.0055*%
%FSLAX44Y44*%
G04*
G70*
G90*
G75*
G01*
%LNBoardOutline*%
%LPD*%
X4921Y3937D2*
D11*
X40354D1*
G03X41339Y4921I0J984D01*
G01*
Y21063D1*
G03X40354Y22047I-984J0D01*
G01*
X4921D1*
X3937D1*
Y21063D1*
Y4921D1*
Y3937D1*
X4921D1*
X9252Y10039D2*
Y8071D1*
Y6102D1*
X11220D1*
X13386D1*
Y6496D1*
X9646D1*
Y9646D1*
X13386D1*
Y10039D1*
X9252D1*
X4528D2*
Y8071D1*
Y6102D1*
X6496D1*
X8661D1*
Y6496D1*
X4921D1*
Y9646D1*
X8661D1*
Y10039D1*
X4528D1*
X18701D2*
Y8071D1*
Y6102D1*
X20669D1*
X22638D1*
Y6496D1*
X19094D1*
Y9646D1*
X22638D1*
Y10039D1*
X18701D1*
X13976D2*
Y8071D1*
Y6102D1*
X15945D1*
X18110D1*
Y6496D1*
X14370D1*
Y9646D1*
X18110D1*
Y10039D1*
X13976D1*
X27756D2*
Y8071D1*
Y6102D1*
X29724D1*
X31693D1*
Y6496D1*
X28150D1*
Y9646D1*
X31693D1*
Y10039D1*
X27756D1*
X23228D2*
Y8071D1*
Y6102D1*
X25197D1*
X27165D1*
Y6496D1*
X23622D1*
Y9646D1*
X27165D1*
Y10039D1*
X23228D1*
X36811D2*
Y8071D1*
Y6102D1*
X38780D1*
X40748D1*
Y6496D1*
X37205D1*
Y9646D1*
X40748D1*
Y10039D1*
X36811D1*
X32283D2*
Y8071D1*
Y6102D1*
X34252D1*
X36220D1*
Y6496D1*
X32677D1*
Y9646D1*
X36220D1*
Y10039D1*
X32283D1*
X9252Y19882D2*
Y17913D1*
Y15945D1*
X11220D1*
X13386D1*
Y16339D1*
X9646D1*
Y19488D1*
X13386D1*
Y19882D1*
X9252D1*
X4528D2*
Y17913D1*
Y15945D1*
X6496D1*
X8661D1*
Y16339D1*
X4921D1*
Y19488D1*
X8661D1*
Y19882D1*
X4528D1*
X18701D2*
Y17913D1*
Y15945D1*
X20669D1*
X22638D1*
Y16339D1*
X19094D1*
Y19488D1*
X22638D1*
Y19882D1*
X18701D1*
X13976D2*
Y17913D1*
Y15945D1*
X15945D1*
X18110D1*
Y16339D1*
X14370D1*
Y19488D1*
X18110D1*
Y19882D1*
X13976D1*
X27756D2*
Y17913D1*
Y15945D1*
X29724D1*
X31693D1*
Y16339D1*
X28150D1*
Y19488D1*
X31693D1*
Y19882D1*
X27756D1*
X23228D2*
Y17913D1*
Y15945D1*
X25197D1*
X27165D1*
Y16339D1*
X23622D1*
Y19488D1*
X27165D1*
Y19882D1*
X23228D1*
X36811D2*
Y17913D1*
Y15945D1*
X38780D1*
X40748D1*
Y16339D1*
X37205D1*
Y19488D1*
X40748D1*
Y19882D1*
X36811D1*
X32283D2*
Y17913D1*
Y15945D1*
X34252D1*
X36220D1*
Y16339D1*
X32677D1*
Y19488D1*
X36220D1*
Y19882D1*
X32283D1*
X9252Y14961D2*
Y12992D1*
Y11024D1*
X11220D1*
X13386D1*
Y11417D1*
X9646D1*
Y14567D1*
X13386D1*
Y14961D1*
X9252D1*
X4528D2*
Y12992D1*
Y11024D1*
X6496D1*
X8661D1*
Y11417D1*
X4921D1*
Y14567D1*
X8661D1*
Y14961D1*
X4528D1*
X18701D2*
Y12992D1*
Y11024D1*
X20669D1*
X22638D1*
Y11417D1*
X19094D1*
Y14567D1*
X22638D1*
Y14961D1*
X18701D1*
X13976D2*
Y12992D1*
Y11024D1*
X15945D1*
X18110D1*
Y11417D1*
X14370D1*
Y14567D1*
X18110D1*
Y14961D1*
X13976D1*
X27756D2*
Y12992D1*
Y11024D1*
X29724D1*
X31693D1*
Y11417D1*
X28150D1*
Y14567D1*
X31693D1*
Y14961D1*
X27756D1*
X23228D2*
Y12992D1*
Y11024D1*
X25197D1*
X27165D1*
Y11417D1*
X23622D1*
Y14567D1*
X27165D1*
Y14961D1*
X23228D1*
X36811D2*
Y12992D1*
Y11024D1*
X38780D1*
X40748D1*
Y11417D1*
X37205D1*
Y14567D1*
X40748D1*
Y14961D1*
X36811D1*
X32283D2*
Y12992D1*
Y11024D1*
X34252D1*
X36220D1*
Y11417D1*
X32677D1*
Y14567D1*
X36220D1*
Y14961D1*
X32283D1*
X9941Y22047D2*
Y21654D1*
Y21260D1*
Y20472D1*
X12697D1*
Y22047D1*
X9941D1*
X14665D2*
Y21654D1*
Y21260D1*
Y20472D1*
X17421D1*
Y22047D1*
X14665D1*
X19291D2*
Y21654D1*
Y21260D1*
Y20472D1*
X22047D1*
Y22047D1*
X19291D1*
X23819D2*
Y21654D1*
Y21260D1*
Y20472D1*
X26575D1*
Y22047D1*
X23819D1*
X28346D2*
Y21654D1*
Y21260D1*
Y20472D1*
X31102D1*
Y22047D1*
X28346D1*
X32874D2*
Y21654D1*
Y21260D1*
Y20472D1*
X35630D1*
Y22047D1*
X32874D1*
M02*
