M48
INCH
T01C0.0191
T02C0.032
T03C0.035
T04C0.0394
T05C0.0512
T06C0.0787
%
T01
X+007887Y+009331
X+009450Y+011143
X+011762Y+010581
X+012200Y+011518
X+012598Y+012894
X+013200Y+013143
X+013387Y+013581
X+013075Y+014018
X+012387Y+013893
X+012512Y+014581
X+012575Y+015206
X+012008Y+016142
X+012512Y+016581
X+012950Y+016268
X+015262Y+016706
X+016137Y+017268
X+016950Y+017706
X+017325Y+017331
X+016950Y+016581
X+018325Y+017331
X+018762Y+016956
X+020075Y+018206
X+020075Y+018768
X+021325Y+018768
X+022012Y+017581
X+022450Y+016581
X+023700Y+013518
X+022197Y+012265
X+021075Y+013081
X+020325Y+012831
X+019825Y+011768
X+019262Y+011331
X+019012Y+010581
X+017762Y+012768
X+018512Y+013206
X+018325Y+013956
X+019012Y+014206
X+016929Y+014075
X+015825Y+013831
X+015387Y+014206
X+013825Y+011206
X+014512Y+010206
X+014762Y+009706
X+015204Y+009206
X+015137Y+008706
X+015075Y+007831
X+014762Y+006518
X+016512Y+006456
X+018575Y+005331
X+019450Y+005331
X+020325Y+005391
X+022887Y+005768
X+022512Y+007518
X+026700Y+007143
X+026700Y+008143
X+026700Y+008643
X+026700Y+009643
X+026637Y+010143
X+026512Y+010643
X+026450Y+013018
X+030700Y+011268
X+031075Y+013393
X+031450Y+014055
X+032637Y+014018
X+030325Y+016393
X+030762Y+018768
X+032637Y+018956
X+037387Y+018956
X+042137Y+018956
X+046637Y+019018
X+051200Y+019081
X+055700Y+019018
X+060200Y+018976
X+060200Y+014081
X+055700Y+014081
X+051200Y+014081
X+046637Y+014081
X+042137Y+014081
X+037387Y+014018
X+037325Y+009144
X+032637Y+009081
X+030512Y+006706
X+042137Y+009144
X+046637Y+009134
X+051200Y+009134
X+055700Y+009134
X+060200Y+009143
X+025387Y+019706
X+025012Y+019331
X+018700Y+019518
X+018325Y+019831
X+017825Y+020018
X+017387Y+020393
X+015825Y+019893
X+015262Y+020018
X+014700Y+020268
X+014075Y+020393
X+013137Y+018893
X+012512Y+018581
X+014262Y+018581
X+015200Y+018893
X+010637Y+019143
X+009843Y+018209
X+008325Y+018393
X+007075Y+018143
X+006575Y+017831
X+007137Y+017331
X+009252Y+016732
X+004700Y+014518
X+006887Y+011581
X+011461Y+005945
X+012992Y+006102
T02
X+011637Y+011581
X+011637Y+012581
T03
X+005150Y+021518
X+006150Y+021518
X+007150Y+021518
X+008150Y+021518
X+009150Y+021518
X+010150Y+021518
X+011150Y+021518
X+012150Y+021518
X+013150Y+021518
X+014150Y+021518
X+015150Y+021518
X+016150Y+021518
X+017150Y+021518
X+018150Y+021518
X+019150Y+021518
X+020150Y+021518
X+021150Y+021518
X+022150Y+021518
X+023150Y+021518
X+024150Y+021518
X+024150Y+004518
X+023150Y+004518
X+022150Y+004518
X+007150Y+004518
X+006150Y+004518
X+005150Y+004518
T04
X+033858Y+021260
X+032087Y+021260
X+036811Y+021260
X+038583Y+021260
X+041437Y+021260
X+043209Y+021260
X+045965Y+021260
X+047736Y+021260
X+050492Y+021260
X+052264Y+021260
X+055020Y+021260
X+056791Y+021260
T05
X+034350Y+020276
X+036319Y+020276
X+039075Y+020276
X+040945Y+020276
X+043701Y+020276
X+045472Y+020276
X+048228Y+020276
X+050000Y+020276
X+052756Y+020276
X+054528Y+020276
X+057283Y+020276
X+031594Y+020276
T06
X+026575Y+021063
X+026575Y+004921
X+062008Y+004921
X+062008Y+021063
T00
M30
